<?xml version="1.0" encoding="UTF-8" standalone="no"?>
<!-- Created with Inkscape (http://www.inkscape.org/) -->

<svg
   width="42.689331mm"
   height="20.925415mm"
   viewBox="0 0 42.689331 20.925415"
   version="1.1"
   id="svg5"
   inkscape:version="1.2.1 (9c6d41e410, 2022-07-14)"
   sodipodi:docname="principle-of-charity-website.svg"
   xml:space="preserve"
   preserveAspectRatio="none"
   inkscape:export-filename="principle-of-charity-website.svg"
   inkscape:export-xdpi="9.34"
   inkscape:export-ydpi="9.34"
   xmlns:inkscape="http://www.inkscape.org/namespaces/inkscape"
   xmlns:sodipodi="http://sodipodi.sourceforge.net/DTD/sodipodi-0.dtd"
   xmlns="http://www.w3.org/2000/svg"
   xmlns:svg="http://www.w3.org/2000/svg"><sodipodi:namedview
     id="namedview7"
     pagecolor="#ffffff"
     bordercolor="#eeeeee"
     borderopacity="1"
     inkscape:showpageshadow="0"
     inkscape:pageopacity="0"
     inkscape:pagecheckerboard="0"
     inkscape:deskcolor="#ffffff"
     inkscape:document-units="mm"
     showgrid="false"
     inkscape:zoom="3.6173376"
     inkscape:cx="2170.1043"
     inkscape:cy="1105.9239"
     inkscape:window-width="1920"
     inkscape:window-height="1013"
     inkscape:window-x="-9"
     inkscape:window-y="-9"
     inkscape:window-maximized="1"
     inkscape:current-layer="layer3"
     showguides="false" /><defs
     id="defs2" /><g
     inkscape:groupmode="layer"
     id="layer3"
     inkscape:label="Grit 1"
     style="display:inline"
     transform="translate(-544.98427,-282.64288)"><path
       style="display:inline;fill:#114b67;fill-opacity:0.501961;stroke:none;stroke-width:0.151975px;stroke-linecap:butt;stroke-linejoin:miter;stroke-opacity:1"
       d="m 576.63222,300.85909 c 0.11883,3.37274 -3.56491,2.49544 -3.68374,0.11885 0.11883,1.78244 -2.85193,4.04022 -3.08959,0.11883 0.11883,2.85192 -3.56491,3.08958 -3.9214,-0.23768 0,3.92141 -4.87204,2.02013 -4.63438,0.11885 -0.47533,2.61425 -4.99088,2.73309 -4.87205,0.11883 -0.47531,2.37659 -5.58502,3.44606 -5.34737,0.11883 -3.5381,4.55266 -7.77931,-2.82491 -3.57412,-5.62237 -2.37661,0.11883 -3.27234,-7.07534 0.0549,-6.83769 -2.87038,-3.87614 -0.48476,-7.56889 3.00347,-4.36238 -0.11336,-2.49691 5.83759,-2.30492 5.2799,0.46442 -0.0457,-3.00702 3.78435,-2.05658 3.68375,-0.11884 -0.11883,-1.78245 2.48621,-2.79679 3.08958,-0.11883 -0.11882,-2.85193 2.97978,-1.55358 3.92141,0.23767 0.65829,-3.04368 4.87204,-1.6544 4.63438,-0.11884 0.10961,-1.80969 4.99088,-2.7331 4.87205,-0.11883 0.47532,-2.3766 4.99989,-2.20264 5.34737,-0.11883 2.66038,-2.65094 7.19417,0.63062 4.52499,4.81779 2.37661,-0.11883 2.5409,10.2205 -0.78635,9.98284 1.55381,4.02243 -2.51411,5.15517 -4.32004,1.65609 0.33279,3.88663 -4.1553,2.23179 -4.18277,-0.0987 z"
       id="path4581-8"
       sodipodi:nodetypes="cccccccccccccccccccccc"
       inkscape:export-filename=".\principle-of-charity\thought-background.svg"
       inkscape:export-xdpi="9.34"
       inkscape:export-ydpi="9.34" /><path
       style="display:inline;fill:#114b67;fill-opacity:0.501961;stroke:none;stroke-width:0.151975px;stroke-linecap:butt;stroke-linejoin:miter;stroke-opacity:1"
       d="m 576.22986,301.10945 c 0.11883,3.37274 -3.56491,2.49544 -3.68374,0.11885 0.11883,1.78244 -2.85193,4.04022 -3.08959,0.11883 0.11883,2.85192 -3.56491,3.08958 -3.9214,-0.23768 0,3.92141 -4.87204,2.02013 -4.63438,0.11885 -0.47533,2.61425 -4.99088,2.73309 -4.87205,0.11883 -0.47531,2.37659 -5.58502,3.44606 -5.34737,0.11883 -3.5381,4.55266 -7.77931,-2.82491 -3.57412,-5.62237 -2.37661,0.11883 -3.27234,-7.07534 0.0549,-6.83769 -2.87038,-3.87614 -0.48476,-7.56889 3.00347,-4.36238 -0.11336,-2.49691 5.83759,-2.30492 5.2799,0.46442 -0.0457,-3.00702 3.78435,-2.05658 3.68375,-0.11884 -0.11883,-1.78245 2.48621,-2.79679 3.08958,-0.11883 -0.11882,-2.85193 2.97978,-1.55358 3.92141,0.23767 0.65829,-3.04368 4.87204,-1.6544 4.63438,-0.11884 0.10961,-1.80969 4.99088,-2.7331 4.87205,-0.11883 0.47532,-2.3766 4.99989,-2.20264 5.34737,-0.11883 2.66038,-2.65094 7.19417,0.63062 4.52499,4.81779 2.37661,-0.11883 2.5409,10.2205 -0.78635,9.98284 1.55381,4.02243 -2.51411,5.15517 -4.32004,1.65609 0.33279,3.88663 -4.1553,2.23179 -4.18277,-0.0987 z"
       id="path4581-8-7"
       sodipodi:nodetypes="cccccccccccccccccccccc"
       inkscape:export-filename=".\principle-of-charity\thought-background.svg"
       inkscape:export-xdpi="9.34"
       inkscape:export-ydpi="9.34" /></g></svg>
